<?xml version="1.0" encoding="UTF-8"?>
<svg id="Layer_1" xmlns="http://www.w3.org/2000/svg" version="1.1" viewBox="0 0 31 31">
  <!-- Generator: Adobe Illustrator 30.0.0, SVG Export Plug-In . SVG Version: 2.1.1 Build 123)  -->
  <defs>
    <style>
      .st0 {
        fill: #99ca3b;
        stroke: #99ca3b;
        stroke-miterlimit: 10;
      }
    </style>
  </defs>
  <path class="st0" d="M18.5.5c-.8,0-1.5.6-1.5,1.4,0,.5.2.9.5,1.2l7.4,6.4H2c-.8,0-1.5.6-1.5,1.5,0,.8.6,1.5,1.5,1.5,0,0,0,0,0,0h26.9c.8,0,1.5-.7,1.5-1.5,0-.4-.2-.8-.5-1.1L19.5.9c-.3-.2-.6-.4-1-.4h0ZM2,18.5c-.8,0-1.5.7-1.5,1.5,0,.4.2.8.5,1.1l10.5,9c.6.5,1.6.5,2.1-.2s.5-1.6-.2-2.1c0,0,0,0,0,0l-7.4-6.4h22.9c.8,0,1.5-.6,1.5-1.5,0-.8-.6-1.5-1.5-1.5,0,0,0,0,0,0H2Z"/>
</svg>