<?xml version="1.0" encoding="UTF-8"?>
<svg id="Layer_1" xmlns="http://www.w3.org/2000/svg" version="1.1" viewBox="0 0 30 30">
  <!-- Generator: Adobe Illustrator 29.3.1, SVG Export Plug-In . SVG Version: 2.1.0 Build 151)  -->
  <defs>
    <style>
      .st0 {
        fill: #fff;
      }
    </style>
  </defs>
  <path class="st0" d="M28.9,3.8h-6.2c-.3,0-.5-.1-.7-.4l-1.4-2.1c-.5-.8-1.4-1.2-2.3-1.2h-6.5c-.9,0-1.8.5-2.3,1.2l-1.4,2.1c-.2.3-.4.4-.7.4H1.1c-.6,0-1.1.5-1.1,1.1s.5,1.1,1.1,1.1h.8l2.3,21.6c.1,1.4,1.2,2.4,2.5,2.4h16.5c1.3,0,2.4-1,2.5-2.4l2.3-21.6h.8c.6,0,1.1-.5,1.1-1.1s-.5-1.1-1.1-1.1h0ZM11.3,2.5c.1-.2.2-.2.4-.2h6.5c.2,0,.3,0,.4.2l.8,1.3h-9.1l.8-1.3ZM23.5,27.4c0,.2-.1.3-.3.3H6.8c-.1,0-.3-.1-.3-.3L4.2,6h21.5l-2.2,21.4h0ZM10.5,11.1v11.6c0,.6-.5,1.1-1.1,1.1s-1.1-.5-1.1-1.1v-11.6c0-.6.5-1.1,1.1-1.1s1.1.5,1.1,1.1ZM16.1,11.1v11.6c0,.6-.5,1.1-1.1,1.1s-1.1-.5-1.1-1.1v-11.6c0-.6.5-1.1,1.1-1.1s1.1.5,1.1,1.1ZM21.8,11.1v11.6c0,.6-.5,1.1-1.1,1.1s-1.1-.5-1.1-1.1v-11.6c0-.6.5-1.1,1.1-1.1s1.1.5,1.1,1.1Z"/>
</svg>