<?xml version="1.0" encoding="UTF-8"?>
<svg id="Layer_1" xmlns="http://www.w3.org/2000/svg" version="1.1" viewBox="0 0 50 50">
  <!-- Generator: Adobe Illustrator 29.8.2, SVG Export Plug-In . SVG Version: 2.1.1 Build 3)  -->
  <defs>
    <style>
      .st0 {
        fill: #fff;
      }
    </style>
  </defs>
  <path class="st0" d="M50,29.1v-8.3l-4.8-.9c-.5-2-1.3-4-2.4-5.8l2.8-4-5.9-5.9-4,2.8c-1.8-1.1-3.7-1.9-5.8-2.4l-.9-4.8h-8.3l-.9,4.8c-2,.5-4,1.3-5.8,2.4l-4-2.8-5.9,5.9,2.8,4c-1.1,1.8-1.9,3.7-2.4,5.8l-4.8.9v8.3l4.8.9c.5,2,1.3,4,2.4,5.8l-2.8,4,5.9,5.9,4-2.8c1.8,1.1,3.7,1.9,5.8,2.4l.9,4.8h8.3l.9-4.8c2-.5,4-1.3,5.8-2.4l4,2.8,5.9-5.9-2.8-4c1.1-1.8,1.9-3.7,2.4-5.8l4.8-.9ZM25,38.6c-7.5,0-13.6-6.1-13.6-13.6s6.1-13.6,13.6-13.6,13.6,6.1,13.6,13.6-6.1,13.6-13.6,13.6Z"/>
</svg>