<?xml version="1.0" encoding="UTF-8"?>
<svg id="Layer_1" xmlns="http://www.w3.org/2000/svg" version="1.1" viewBox="0 0 77.5 90">
  <!-- Generator: Adobe Illustrator 30.0.0, SVG Export Plug-In . SVG Version: 2.1.1 Build 123)  -->
  <defs>
    <style>
      .st0 {
        fill: #fff;
      }
    </style>
  </defs>
  <path class="st0" d="M77.1,48.8c0-21.2-17.2-38.4-38.4-38.4S.3,27.6.3,48.8s5.1,22.4,14.1,29.7l-4.4,6.4c-.5.7-.7,1.6-.5,2.4.2.9.6,1.6,1.3,2.1.6.4,1.2.6,1.8.6,1,0,2-.5,2.7-1.4l4.5-6.4c5.8,3.3,12.3,5,19,5s13.2-1.7,19-5l4.5,6.4c1,1.5,3,1.8,4.5.8,1.5-1,1.8-3,.8-4.5l-4.4-6.4c9-7.3,14.1-18.1,14.1-29.7h0ZM38.7,79.8c-17.1,0-31-13.9-31-31s13.9-31,31-31,31,13.9,31,31c0,17.1-13.9,31-31,31Z"/>
  <path class="st0" d="M49.9,53.9l-8.4-6.4c0,0,0-.1,0-.2v-20c0-.8-.4-1.6-1-2.1-.6-.5-1.4-.7-2.2-.6-1.3.2-2.2,1.4-2.2,2.8v21.8c0,.5.3,1,.7,1.4l9.9,7.6c.5.4,1.1.5,1.6.5.8,0,1.6-.4,2.2-1.1.4-.6.6-1.3.5-2,0-.7-.5-1.4-1-1.8h0Z"/>
  <path class="st0" d="M2.7,23L26.9,6.1l-.4-.6C24.4,2.5,21.1.6,17.4.1c-3.7-.5-7.6.5-10.8,2.7C0,7.5-2,16.3,2.3,22.4l.4.6Z"/>
  <path class="st0" d="M75.2,22.4c4.3-6.1,2.3-14.9-4.3-19.5-3.2-2.3-7-3.2-10.8-2.8-3.8.5-7,2.4-9,5.3l-.4.6,24.2,16.9.4-.6Z"/>
  <path class="st0" d="M33.6,8h10.2c1.5,0,2.7-1.2,2.7-2.7v-1.9c0-1.5-1.2-2.7-2.7-2.7h-10.2c-1.5,0-2.7,1.2-2.7,2.7v1.9c0,1.5,1.2,2.7,2.7,2.7h0Z"/>
</svg>