<?xml version="1.0" encoding="UTF-8"?>
<svg id="Layer_1" xmlns="http://www.w3.org/2000/svg" version="1.1" viewBox="0 0 105 105">
  <!-- Generator: Adobe Illustrator 30.0.0, SVG Export Plug-In . SVG Version: 2.1.1 Build 123)  -->
  <defs>
    <style>
      .st0 {
        fill: #fff;
      }

      .st1 {
        opacity: .5;
      }
    </style>
  </defs>
  <path class="st0" d="M15,13.5v78h-6c-1.7,0-3-1.3-3-3V16.5c0-1.7,1.3-3,3-3h6M21,7.5h-12C4,7.5,0,11.5,0,16.5v72c0,5,4,9,9,9h12V7.5h0Z"/>
  <path class="st0" d="M96,13.5c1.7,0,3,1.3,3,3v72c0,1.7-1.3,3-3,3h-6V13.5h6M96,7.5h-12v90h12c5,0,9-4,9-9V16.5c0-5-4-9-9-9h0Z"/>
  <path class="st0" d="M78,6c3.3,0,6,2.7,6,6v81c0,3.3-2.7,6-6,6H27c-3.3,0-6-2.7-6-6V12c0-3.3,2.7-6,6-6h51M78,0H27C20.4,0,15,5.4,15,12v81c0,6.6,5.4,12,12,12h51c6.6,0,12-5.4,12-12V12C90,5.4,84.6,0,78,0h0Z"/>
  <g class="st1">
    <rect class="st0" x="15" width="75" height="105" rx="12" ry="12"/>
  </g>
</svg>