<?xml version="1.0" encoding="UTF-8"?>
<svg id="Layer_1" xmlns="http://www.w3.org/2000/svg" version="1.1" viewBox="0 0 119.5 119.5">
  <!-- Generator: Adobe Illustrator 29.8.2, SVG Export Plug-In . SVG Version: 2.1.1 Build 3)  -->
  <defs>
    <style>
      .st0, .st1 {
        fill: #fff;
        fill-rule: evenodd;
      }

      .st1 {
        stroke: #fff;
        stroke-miterlimit: 10;
        stroke-width: 3px;
      }
    </style>
  </defs>
  <path class="st1" d="M96.4,58.3c0-1.4,1.1-2.5,2.5-2.5s2.5,1.1,2.5,2.5v45.5c0,4-1.6,7.5-4.2,10.1-2.5,2.5-6.2,4.2-10.1,4.2H15.8c-4,0-7.5-1.6-10.1-4.2-2.5-2.5-4.2-6.2-4.2-10.1V32.3c0-4,1.6-7.5,4.2-10.1,2.5-2.5,6.2-4.2,10.1-4.2h45.8c1.4,0,2.5,1.1,2.5,2.5s-1.1,2.5-2.5,2.5H15.8c-2.5,0-4.8,1-6.5,2.7-1.6,1.6-2.7,4-2.7,6.5v71.5c0,2.5,1,4.8,2.7,6.5,1.6,1.6,4,2.7,6.5,2.7h71.5c2.5,0,4.8-1,6.5-2.7,1.6-1.6,2.7-4,2.7-6.5v-45.6"/>
  <path class="st0" d="M104.8.7l14,14c.9.9.9,2.3,0,3.2l-52.3,52.3c-.4.4-.9.6-1.4.7l-16.8,2.9c-1.2.2-2.4-.6-2.6-1.9v-.8l2.9-16.8c0-.5.3-.9.6-1.2L101.6.7c.9-.9,2.3-.9,3.2,0h0Z"/>
</svg>