<?xml version="1.0" encoding="UTF-8"?>
<svg id="Layer_1" xmlns="http://www.w3.org/2000/svg" version="1.1" viewBox="0 0 90 90">
  <!-- Generator: Adobe Illustrator 30.0.0, SVG Export Plug-In . SVG Version: 2.1.1 Build 123)  -->
  <defs>
    <style>
      .st0 {
        fill: #fff;
        fill-rule: evenodd;
      }
    </style>
  </defs>
  <path class="st0" d="M32.2,49.3c-5.7,0-5.7-8.6,0-8.6h53.5c5.7,0,5.7,8.6,0,8.6h-53.5Z"/>
  <path class="st0" d="M8.7,36.3c8.1,0,11.5,10.2,5.8,15.1-8.7,7.4-19.6-4.8-11.9-12.5h0c1.6-1.6,3.7-2.5,6.1-2.5h0Z"/>
  <path class="st0" d="M8.7,0C16.9,0,20.2,10.2,14.5,15.1,5.8,22.5-5.1,10.2,2.6,2.5h0C4.2,1,6.3,0,8.7,0h0Z"/>
  <path class="st0" d="M32.2,13c-5.7,0-5.7-8.6,0-8.6h53.5c5.7,0,5.7,8.6,0,8.6h-53.5Z"/>
  <path class="st0" d="M32.2,85.6c-5.7,0-5.7-8.6,0-8.6h53.5c5.7,0,5.7,8.6,0,8.6h-53.5Z"/>
  <path class="st0" d="M8.7,72.6c8.1,0,11.5,10.2,5.8,15.1-8.7,7.4-19.6-4.8-11.9-12.5h0c1.6-1.6,3.7-2.5,6.1-2.5h0Z"/>
</svg>