<?xml version="1.0" encoding="UTF-8"?>
<svg id="Layer_1" data-name="Layer 1" xmlns="http://www.w3.org/2000/svg" viewBox="0 0 759.07 184.91">
  <defs>
    <style>
      .cls-1 {
        fill: #f04e23;
      }

      .cls-2 {
        fill: #39748b;
      }

      .cls-3 {
        fill: #9aca3c;
      }
    </style>
  </defs>
  <path class="cls-2" d="M747.76,135.83c-35.63-2.67-80-4.84-128.46-4.84-74.18,0-157.95,5.08-234.36,20.91-12.8-16.16-28.39-28.88-52.28-38.91l-.35.7c21.14,22.96,34.64,42.81,44.21,71.22,107.08-39.98,241.56-47.35,343.06-47.35,9.71,0,18.98.13,27.94.23l.24-1.97Z"/>
  <path class="cls-3" d="M440.91,0c-7.38,27.7-17.55,55.4-30.59,83.21h-.23c-3.44-22.59-5.2-55.14-5.2-83.21h-37.13c1.14,44.31,8.86,83.44,17.53,118.18h35.77c20.19-36.46,39.1-75.69,53.77-118.18h-33.93ZM759.07,60.48c0-22.86-14.78-32.09-39.6-32.09-29.97,0-48.24,13.77-48.24,60.38,0,22.82,14.8,32.09,39.62,32.09,29.96,0,48.22-13.41,48.22-60.38M510.61,29.08c-22.39,0-34.5,4.27-44.31,14.77-9.35,9.94-14.31,27.46-14.31,46.06,0,16.14,4.04,29.55,24,29.55,9.12,0,17.08-3.47,24.47-7.76h.34l-.82,6.47h30.36l10.83-88.52c-8.87-.35-19.14-.57-30.57-.57M636.75,97.65c6.44,0,15.11-1.51,21.94-3.47l-3.94,21.47c-8.1,2.06-19.49,3.22-29.67,3.22-32.4,0-41.41-14.07-41.41-32.56,0-47.19,20.31-57.92,48.23-57.92,21.93,0,35.53,10.62,35.53,30.93,0,8.89-1.79,16.86-3.08,22.4h-48.24c0,10.16,3.32,15.93,20.65,15.93M571.53,118.18h-32.08L554.02,0h32.07l-14.56,118.18ZM724.79,75.71c-2.43,22.38-5.79,27.01-12.22,27.01-5.88,0-8.19-4.3-8.19-13.63,0-4.03.46-9.7,1.16-15.55,2.42-22.41,5.77-27.01,12.2-27.01,5.89,0,8.21,4.25,8.21,13.58,0,4.07-.46,9.7-1.16,15.6M501.14,94.62c-2.08,1.51-5.19,3.24-8.64,3.24-6.58,0-7.5-5.54-7.5-12.1,0-7.72,2.08-21.48,4.38-26.9,3.46-8.32,8.2-10.62,15.82-10.62.22,0,.81,0,1.61.12l-5.66,46.26ZM636.29,63.23c.59-2.76,1.06-5.08,1.06-8.28,0-6.26-3.95-8.79-8.1-8.79-6.83,0-10.37,4.04-11.99,17.08h19.03Z"/>
  <path class="cls-1" d="M261.99,90.04c-11.01,0-19.93-8.93-19.93-19.93s8.92-19.94,19.93-19.94c7.03,0,13.2,3.65,16.75,9.14l29.07-18.15c-9.6-15.17-26.52-25.26-45.82-25.26-24.21,0-44.71,15.89-51.66,37.8V19.49h-34.35v34.71h-36.19V19.49h-34.32v33.09c-7.29-21.33-27.46-36.69-51.27-36.69C24.26,15.9,0,40.17,0,70.11v102.85l34.27-21.36v-31.09c6.19,2.44,12.9,3.8,19.93,3.8,23.81,0,43.98-15.36,51.27-36.69v30.87h34.32v-33.82h36.19v33.82h34.35v-31.98c6.95,21.92,27.45,37.8,51.66,37.8,19.3,0,36.22-10.08,45.82-25.26l-29.07-18.14c-3.55,5.48-9.72,9.13-16.75,9.13M54.2,90.04c-10.95,0-19.84-8.85-19.93-19.79v-.14c0-11.01,8.92-19.94,19.93-19.94s19.95,8.93,19.95,19.94-8.93,19.93-19.95,19.93"/>
</svg>