<?xml version="1.0" encoding="UTF-8"?>
<svg id="Layer_1" data-name="Layer 1" xmlns="http://www.w3.org/2000/svg" viewBox="0 0 90 41.99">
  <defs>
    <style>
      .cls-1 {
        fill: #fff;
        fill-rule: evenodd;
      }
    </style>
  </defs>
  <polygon class="cls-1" points="90 20.99 79.61 14.99 79.61 26.99 90 20.99"/>
  <polygon class="cls-1" points="0 20.99 10.39 26.99 10.39 14.99 0 20.99"/>
  <g>
    <path class="cls-1" d="M16,3v1c0,1.31.83,2.42,2,2.83v32.16c0,.8.32,1.56.88,2.12.56.56,1.32.88,2.12.88h48c.8,0,1.56-.32,2.12-.88.56-.56.88-1.33.88-2.12V6.83c1.17-.41,2-1.52,2-2.83v-1C74,1.34,72.66,0,71,0H19c-1.66,0-3,1.34-3,3ZM20,7h50v31.99c0,.27-.1.52-.29.71-.19.19-.44.29-.71.29H21c-.27,0-.52-.1-.71-.29-.19-.19-.29-.44-.29-.71V7ZM18,3c0-.55.45-1,1-1h52c.55,0,1,.45,1,1v1c0,.52-.4.95-.9.99-.03,0-.07,0-.1,0-.05,0-.09,0-.14.01H19.14s-.09-.01-.14-.01c-.03,0-.07,0-.1,0-.51-.05-.9-.48-.9-.99v-1Z"/>
    <path class="cls-1" d="M25,26.99c-.55,0-1-.45-1-1,0-.55.45-1,1-1h14c.55,0,1,.45,1,1,0,.55-.45,1-1,1h-14Z"/>
    <path class="cls-1" d="M25,32.99c-.55,0-1-.45-1-1,0-.55.45-1,1-1h14c.55,0,1,.45,1,1,0,.55-.45,1-1,1h-14Z"/>
    <path class="cls-1" d="M47.51,31.48c4.68,4.68,12.29,4.68,16.97,0,2.88-2.88,3.99-6.87,3.33-10.6,0-.01,0-.02,0-.03-.42-2.32-1.53-4.55-3.32-6.34-4.68-4.68-12.29-4.68-16.97,0-4.68,4.68-4.68,12.29,0,16.97ZM65.63,20.3l-8.77,2.14-7.2-7.2c3.93-3.22,9.74-2.99,13.4.67,1.26,1.26,2.11,2.78,2.56,4.38ZM52.56,32.39l4.64-7.97,8.77-2.14c.2,2.79-.77,5.66-2.9,7.79-2.84,2.84-6.97,3.61-10.51,2.32ZM48.26,16.66l7.05,7.05-4.54,7.8c-.65-.4-1.27-.89-1.83-1.45-3.66-3.66-3.89-9.48-.67-13.4Z"/>
    <path class="cls-1" d="M25,14.99c-.55,0-1-.45-1-1s.45-1,1-1h14c.55,0,1,.45,1,1s-.45,1-1,1h-14Z"/>
    <path class="cls-1" d="M25,20.99c-.55,0-1-.45-1-1,0-.55.45-1,1-1h14c.55,0,1,.45,1,1,0,.55-.45,1-1,1h-14Z"/>
  </g>
</svg>