<?xml version="1.0" encoding="UTF-8"?>
<svg id="Layer_1" data-name="Layer 1" xmlns="http://www.w3.org/2000/svg" viewBox="0 0 81 33">
  <defs>
    <style>
      .cls-1 {
        fill: #fff;
      }

      .cls-2 {
        opacity: .5;
      }

      .cls-3 {
        opacity: .3;
      }

      .cls-4 {
        opacity: .15;
      }
    </style>
  </defs>
  <path class="cls-1" d="M76,2.81c1.21,0,2.19.98,2.19,2.19v23c0,1.21-.98,2.19-2.19,2.19H5c-1.21,0-2.19-.98-2.19-2.19V5c0-1.21.98-2.19,2.19-2.19h71M76,0H5C2.24,0,0,2.24,0,5v23c0,2.76,2.24,5,5,5h71c2.76,0,5-2.24,5-5V5c0-2.76-2.24-5-5-5h0Z"/>
  <g>
    <g>
      <g class="cls-2">
        <circle class="cls-1" cx="40.5" cy="16.5" r="8.5"/>
      </g>
      <path class="cls-1" d="M40.5,9.42c3.91,0,7.08,3.18,7.08,7.08s-3.18,7.08-7.08,7.08-7.08-3.18-7.08-7.08,3.18-7.08,7.08-7.08M40.5,8c-4.69,0-8.5,3.81-8.5,8.5s3.81,8.5,8.5,8.5,8.5-3.81,8.5-8.5-3.81-8.5-8.5-8.5h0Z"/>
    </g>
    <g>
      <g class="cls-4">
        <circle class="cls-1" cx="16.75" cy="16.5" r="8.5"/>
      </g>
      <path class="cls-1" d="M16.75,9.42c3.91,0,7.08,3.18,7.08,7.08s-3.18,7.08-7.08,7.08-7.08-3.18-7.08-7.08,3.18-7.08,7.08-7.08M16.75,8c-4.69,0-8.5,3.81-8.5,8.5s3.81,8.5,8.5,8.5,8.5-3.81,8.5-8.5-3.81-8.5-8.5-8.5h0Z"/>
    </g>
    <g>
      <g class="cls-3">
        <circle class="cls-1" cx="64.25" cy="16.5" r="8.5"/>
      </g>
      <path class="cls-1" d="M64.25,9.42c3.91,0,7.08,3.18,7.08,7.08s-3.18,7.08-7.08,7.08-7.08-3.18-7.08-7.08,3.18-7.08,7.08-7.08M64.25,8c-4.69,0-8.5,3.81-8.5,8.5s3.81,8.5,8.5,8.5,8.5-3.81,8.5-8.5-3.81-8.5-8.5-8.5h0Z"/>
    </g>
  </g>
</svg>