<?xml version="1.0" encoding="UTF-8"?>
<svg id="Layer_1" xmlns="http://www.w3.org/2000/svg" version="1.1" viewBox="0 0 90 90">
  <!-- Generator: Adobe Illustrator 30.0.0, SVG Export Plug-In . SVG Version: 2.1.1 Build 123)  -->
  <defs>
    <style>
      .st0, .st1 {
        fill: #99ca3b;
      }

      .st1 {
        isolation: isolate;
        opacity: .5;
      }
    </style>
  </defs>
  <path class="st0" d="M75.8,0H14.1C6.3,0,0,6.3,0,14.1v61.8c0,7.8,6.3,14.1,14.1,14.1h61.8c7.8,0,14.1-6.3,14.1-14.1V14.1c0-7.8-6.4-14.1-14.2-14.1h0ZM33.8,51.9v-26.7h22.4v26.7s-22.4,0-22.4,0ZM56.1,57.6v26.7h-22.4v-26.7s22.4,0,22.4,0ZM5.6,25.3h22.6v26.7H5.6v-26.7ZM61.7,25.3h22.6v26.7h-22.6s0-26.7,0-26.7ZM14.1,5.6h61.8c4.7,0,8.4,3.8,8.4,8.4v5.6H5.6v-5.6c0-4.7,3.8-8.4,8.4-8.4h0ZM5.6,75.8v-18.3h22.6v26.7h-14.1c-4.7,0-8.4-3.8-8.4-8.4h0ZM75.8,84.3h-14.1v-26.7h22.6v18.3c0,4.7-3.8,8.4-8.4,8.4h0Z"/>
  <path class="st1" d="M14.1,5.6h61.8c4.7,0,8.4,3.8,8.4,8.4v5.6H5.6v-5.6c0-4.7,3.8-8.4,8.4-8.4h0Z"/>
</svg>