<?xml version="1.0" encoding="UTF-8"?>
<svg id="Layer_1" xmlns="http://www.w3.org/2000/svg" version="1.1" viewBox="0 0 120 75">
  <!-- Generator: Adobe Illustrator 30.0.0, SVG Export Plug-In . SVG Version: 2.1.1 Build 123)  -->
  <defs>
    <style>
      .st0 {
        fill: none;
        stroke: #99ca3b;
        stroke-linecap: round;
        stroke-miterlimit: 10;
        stroke-width: 3px;
      }

      .st1, .st2 {
        fill: #99ca3b;
      }

      .st2 {
        opacity: .5;
      }
    </style>
  </defs>
  <rect class="st2" x="15" width="90" height="75" rx="12" ry="12"/>
  <path class="st1" d="M93,6c3.3,0,6,2.7,6,6v51c0,3.3-2.7,6-6,6H27c-3.3,0-6-2.7-6-6V12c0-3.3,2.7-6,6-6h66M93,0H27c-6.6,0-12,5.4-12,12v51c0,6.6,5.4,12,12,12h66c6.6,0,12-5.4,12-12V12c0-6.6-5.4-12-12-12h0Z"/>
  <line class="st0" x1="111.5" y1="7.5" x2="111.5" y2="67.5"/>
  <line class="st0" x1="118.5" y1="15" x2="118.5" y2="60"/>
  <line class="st0" x1="1.5" y1="15" x2="1.5" y2="60"/>
  <line class="st0" x1="8.5" y1="7.5" x2="8.5" y2="67.5"/>
</svg>